<svg xmlns="http://www.w3.org/2000/svg" width="500" fill="currentColor" viewBox="0 0 375 375" height="500" version="1.0"><defs><clipPath id="a"><path d="M17 0h341v201.75H17Zm0 0"/></clipPath><clipPath id="b"><path d="M75.281 184.574h64.5V375h-64.5Zm0 0"/></clipPath><clipPath id="c"><path d="M140 58h100v99H140Zm0 0"/></clipPath><clipPath id="d"><path d="m222.992 55.563 18.563 18.558-89.625 89.629-18.563-18.563Zm0 0"/></clipPath><clipPath id="e"><path d="m222.992 55.563 18.563 18.558-89.625 89.629-18.563-18.563Zm0 0"/></clipPath><clipPath id="f"><path d="M141 66h87v88h-87Zm0 0"/></clipPath><clipPath id="g"><path d="M133.277 79.371 155.02 57.63l82.734 82.73-21.746 21.743Zm0 0"/></clipPath><clipPath id="h"><path d="M133.277 79.371 155.02 57.63l82.734 82.73-21.746 21.743Zm0 0"/></clipPath></defs><path d="m182.941 41.953-.156-4.66a135.9 135.9 0 0 0-42.234 8.234l1.617 4.383a130.4 130.4 0 0 1 40.773-7.957M95.023 80.148c10.66-10.66 22.934-19.328 36.422-25.73l-1.988-4.227A135.5 135.5 0 0 0 91.73 76.824c-11.406 11.406-20.543 24.489-27.226 38.91-6.649 14.387-10.692 29.77-11.965 45.715l4.664.371c2.453-30.734 15.879-59.761 37.82-81.672m0 0"/><g clip-path="url(#a)"><path d="M351.849 181.336a6.41 6.41 0 0 1 5.348 2.891 5.33 5.33 0 0 1 .12 5.316l-2.98 5.5c-2.332 4.352-7.055 7.023-12.34 7.023H128.262a10 10 0 0 0-.903-.825q-1.97-1.715-6.874-2.921-2.334-.58-6.202-.884h227.618c3.512 0 6.746-1.804 8.239-4.57l2.98-5.5h.001a.6.6 0 0 0-.031-.715c-.184-.312-.621-.62-1.274-.62H22.984c-.684 0-1.086.308-1.274.62a.6.6 0 0 0-.03.715l2.984 5.5c1.524 2.766 4.723 4.57 8.234 4.57h43.774v1.367h5.86v3.263H32.993c-5.281 0-10.008-2.703-12.336-7.023l-2.984-5.5a5.32 5.32 0 0 1 .124-5.317c1.056-1.769 3.075-2.89 5.25-2.89h9.2c0-.805.281-1.613.777-2.328l2.704-3.824c1.242-1.77 3.202-3.138 5.562-4.008.156-19.27 4.012-37.946 11.469-55.567 7.364-17.402 17.902-33.035 31.324-46.461 25.703-25.734 59.641-40.804 95.813-42.64-.715-4.473-2.266-8.047-4.755-11.125-2.113-2.61-2.546-5.75-1.21-8.61 1.895-4.07 6.992-6.71 12.925-6.773h1.184c5.934.063 11.03 2.734 12.924 6.772 1.34 2.86.903 6-1.21 8.61-2.484 3.078-4.008 6.683-4.754 11.125 36.145 1.867 70.11 16.937 95.812 42.642 13.426 13.425 23.961 29.058 31.325 46.46 7.429 17.621 11.281 36.297 11.468 55.567 2.333.84 4.321 2.238 5.563 4.008l2.703 3.824a3.87 3.87 0 0 1 .777 2.328ZM178.715 12.46c3.14 3.887 5.035 8.359 5.75 13.894h5.75c.84-5.566 2.703-10.007 5.84-13.894.995-1.211 1.215-2.453.625-3.695-.934-2.024-4.012-4.043-8.766-4.106h-1.059c-4.753.063-7.828 2.113-8.761 4.106-.559 1.242-.375 2.484.621 3.695M45.89 170.241h282.992c-.59-36.918-15.231-71.538-41.426-97.738-25.484-25.453-59.297-40.153-95.223-41.363h-.03a52 52 0 0 0-2.27-.063c-.84-.031-1.68-.031-2.547-.031h-1.215c-1.212 0-2.422.032-3.602.062-35.957 1.18-69.769 15.879-95.254 41.364C61.147 98.64 46.48 133.292 45.89 170.21Zm-8.797 10.973c.187.09.468.12.777.12h299.09c.264.004.527-.037.778-.12l-2.36-3.328c-1.277-1.802-4.258-3.012-7.43-3.012H46.882c-3.168 0-6.153 1.211-7.426 3.012Zm65.969 17.59q5.215 0 7.595 2.296.424.408.772.966h-11.335v-3.262Z"/></g><g clip-path="url(#b)"><path d="M75.324 374.992V184.574h64.414v190.418l-32.203-29.594Zm29.535-64.864q3.513 0 4.813 2.345 1.312 2.344 1.312 7.39v6.562q0 9.549 3.094 13.015 3.106 3.47 10.484 3.47 7.388 0 9.86-2.61 2.483-2.625 3.484-10.265l-1.531-.188q-.816 4.783-1.766 6.266c-.625.992-1.48 1.484-2.562 1.484-1.086 0-1.793-.539-2.125-1.625q-.486-1.622-.485-6.297v-4.781q-.001-7.828-2.89-11.156-2.877-3.327-10.172-4.328v-.266c5.164-.414 9.008-1.719 11.532-3.906q3.78-3.295 3.78-10.953-.002-7.653-4.328-11.157-1.97-1.715-6.874-2.921-4.91-1.22-16.61-1.219H76.672v1.702h5.86v59.61h-5.86v1.703h29.265V340.3h-5.843v-30.17h4.766Zm-1.797-29.436q5.215 0 7.595 2.297 2.39 2.298 2.39 9.406v2.609q0 7.114-2.485 10.266-2.472 3.158-7.593 3.156h-2.875v-27.734Zm1.797-52.451q3.513 0 4.813 2.344 1.312 2.344 1.312 7.39v6.563q0 9.549 3.094 13.015 3.106 3.47 10.484 3.47 7.388-.002 9.86-2.61 2.483-2.625 3.484-10.266l-1.531-.187q-.816 4.782-1.766 6.265c-.625.993-1.48 1.485-2.562 1.485-1.086 0-1.793-.539-2.125-1.625q-.486-1.622-.485-6.298v-4.78q-.001-7.828-2.89-11.157-2.877-3.327-10.172-4.328v-.265q7.746-.623 11.532-3.907 3.78-3.293 3.78-10.953-.002-7.652-4.328-11.156-1.97-1.715-6.874-2.921-4.91-1.22-16.61-1.22H76.672v1.703h5.86v59.61h-5.86v1.703h29.265v-1.703h-5.843v-30.172Zm-1.797-29.437q5.215 0 7.595 2.296 2.39 2.298 2.39 9.406v2.61q0 7.113-2.485 10.266-2.472 3.157-7.593 3.156h-2.875v-27.734Z"/></g><g clip-path="url(#c)"><g clip-path="url(#d)"><g clip-path="url(#e)"><path d="M198.246 105.398a12.6 12.6 0 0 1 5.152-3.117l6.938-.71a12.5 12.5 0 0 0 7.875-3.923l20.422-24.402c.547-.59.535-1.512-.012-2.058-.55-.551-1.437-.528-1.984.058l-18.95 20.887c-.757.812-1.968.887-2.695.16-.722-.723-.676-1.961.098-2.762l19.347-20.484c.56-.574.56-1.48.012-2.031-.547-.547-1.441-.536-2.012.035l-19.71 20.117c-.778.793-2.004.855-2.73.129-.724-.723-.661-1.95.128-2.727l20.121-19.715c.563-.574.574-1.468.027-2.015-.55-.547-1.457-.547-2.039.008L207.75 82.195c-.797.77-2.04.817-2.762.094s-.648-1.937.164-2.695l20.883-18.946c.59-.55.61-1.437.063-1.984-.551-.55-1.473-.562-2.059-.016l-24.406 20.426a12.54 12.54 0 0 0-3.918 7.871l-.711 6.942a12.6 12.6 0 0 1-3.121 5.148s-19.95 22.848-43.348 40.762c0 0-12.488 8.25-5.902 14.84 6.586 6.586 14.84-5.907 14.84-5.907 17.925-23.378 40.773-43.332 40.773-43.332m0 0"/></g></g></g><g clip-path="url(#f)"><g clip-path="url(#g)"><g clip-path="url(#h)"><path d="M176.566 95.395c1.008-4.235 4.243-11.758-6.007-20.301-9.895-8.239-21.11-11.29-25.965-7.016.058-.058.11-.121.168-.18-.047.051-.098.094-.14.141-.09.082-.173.172-.259.258-.093.094-.187.18-.273.273-.082.075-.156.157-.235.239-.085.082-.171.16-.25.246-.078.07-.144.148-.218.218.066-.062.136-.117.203-.175-3.98 4.644-1.246 16.136 7.02 25.945 8.59 10.203 15.742 7.012 19.863 6.445 3.043-.418 5.636 2.504 5.636 2.504s2.157 2.395 6.625 7.61c4.282 4.996 26.508 31.312 30.914 35.714 4.137 4.141 7.524 8.47 11.692 4.883-.043.047-.074.094-.121.14l-.074.083q.229-.216.464-.469c.18-.168.36-.344.543-.543l.016-.02c.102-.097.203-.19.305-.292l-.227.203c4.328-4.922-3.973-11.371-3.973-11.371s-30.554-27.567-35.75-32.059c-5.625-4.855-7.578-6.71-7.578-6.71s-3.101-2.716-2.379-5.766"/></g></g></g><path d="M165.224 260.575q-5.578.001-9.843-2.375a17.04 17.04 0 0 1-6.657-6.656q-2.39-4.28-2.39-10c0-4.102.804-7.598 2.422-10.485q2.418-4.341 6.296-6.703c2.583-1.57 5.32-2.36 8.22-2.36q3.187 0 6.187 1.126 3 1.127 5.343 3.344c1.57 1.468 2.829 3.265 3.766 5.39.945 2.117 1.469 4.574 1.563 7.375a2.3 2.3 0 0 1-.735 1.485q-.645.609-1.5.609h-29.031l-.86-3.906h28.516l-.953.875v-1.453c-.187-2.27-.914-4.196-2.172-5.782a12.24 12.24 0 0 0-4.562-3.625 13.2 13.2 0 0 0-5.563-1.234q-2.173.001-4.453.875-2.285.86-4.125 2.719-1.845 1.844-3 4.703-1.158 2.846-1.156 6.765c0 2.844.578 5.43 1.734 7.75 1.156 2.313 2.828 4.149 5.016 5.5q3.293 2.016 7.86 2.016 2.53.001 4.562-.719 2.028-.732 3.547-1.922 1.511-1.199 2.53-2.5.797-.656 1.595-.656.714.002 1.265.578.546.58.547 1.313-.002.86-.719 1.515c-1.449 1.743-3.336 3.25-5.656 4.532q-3.469 1.906-7.594 1.906m40.451-38.578c2.312 0 4.43.258 6.359.765 1.938.512 3.492 1.2 4.672 2.063q1.78 1.3 1.781 2.828 0 .721-.515 1.406-.504.69-1.36.688-.878 0-1.422-.422-.55-.435-1.093-1.016-.534-.59-1.547-1.093-.938-.435-2.672-.797-1.734-.36-3.985-.36-4.048.002-7.312 2.032c-2.168 1.343-3.883 3.164-5.14 5.453q-1.876 3.44-1.876 7.718 0 4.332 1.797 7.813 1.811 3.47 5 5.469 3.188 1.985 7.453 1.984c1.938 0 3.43-.164 4.485-.5q1.593-.516 2.765-1.172 1.373-.797 1.985-1.547c.406-.508.945-.765 1.625-.765q.937 0 1.406.547c.32.367.484.835.484 1.406q-.002 1.16-1.703 2.578c-1.137.937-2.695 1.758-4.672 2.453-1.98.695-4.246 1.047-6.797 1.047q-5.44 0-9.53-2.531-4.08-2.531-6.36-6.907c-1.524-2.914-2.281-6.207-2.281-9.875q0-5.295 2.312-9.625a18.35 18.35 0 0 1 6.469-6.984q4.17-2.656 9.672-2.656m25.408 35.687c0 .586-.219 1.094-.656 1.532-.438.43-.946.64-1.516.64-.637 0-1.156-.21-1.562-.64a2.17 2.17 0 0 1-.61-1.532v-33.297c0-.57.203-1.078.61-1.515q.608-.656 1.562-.656.937 0 1.547.656c.414.437.625.945.625 1.515Zm-2.187-40.312q-1.519.002-2.282-.688-.75-.685-.75-1.984v-.719c0-.875.274-1.539.828-2q.827-.686 2.282-.687c.914 0 1.625.23 2.125.687.507.461.765 1.125.765 2v.719c0 .867-.258 1.527-.765 1.984q-.75.69-2.203.688m31.064 5.218q4.906.002 8.703 2.422 3.81 2.426 6.047 6.657 2.25 4.237 2.25 9.734 0 5.501-2.25 9.766c-1.492 2.843-3.515 5.09-6.078 6.734q-3.83 2.454-8.61 2.453-2.531 0-4.812-.75a16.5 16.5 0 0 1-4.172-2.062 16.6 16.6 0 0 1-3.328-3.078 15.7 15.7 0 0 1-2.312-3.875l1.312-.938v22.5q-.001.872-.625 1.516-.61.656-1.547.656-.94 0-1.562-.656a2.13 2.13 0 0 1-.61-1.516v-47.187q0-.936.579-1.579.575-.656 1.593-.656.938 0 1.547.656c.414.43.625.954.625 1.579v7.828l-1.015-.578a12.5 12.5 0 0 1 2.125-4.016 14.7 14.7 0 0 1 3.297-3.047 14.6 14.6 0 0 1 4.125-1.906c1.5-.438 3.07-.656 4.718-.656Zm-.375 4.047q-3.909 0-6.875 1.922-2.971 1.91-4.672 5.203-1.687 3.3-1.687 7.641 0 4.266 1.687 7.672 1.7 3.408 4.672 5.328 2.966 1.908 6.875 1.906 3.844.002 6.766-1.906 2.937-1.92 4.672-5.328 1.734-3.405 1.734-7.672t-1.734-7.594q-1.735-3.339-4.672-5.25-2.923-1.921-6.766-1.922m43.355 33.938q-5.578.001-9.844-2.375a17.04 17.04 0 0 1-6.656-6.656q-2.39-4.28-2.39-10c0-4.102.804-7.598 2.421-10.485q2.42-4.341 6.297-6.703c2.582-1.57 5.32-2.36 8.22-2.36q3.187 0 6.187 1.126 3 1.127 5.343 3.344c1.57 1.468 2.828 3.265 3.766 5.39.945 2.117 1.469 4.574 1.562 7.375a2.3 2.3 0 0 1-.734 1.485q-.645.609-1.5.609h-29.031l-.86-3.906h28.516l-.953.875v-1.453q-.283-3.404-2.172-5.782a12.24 12.24 0 0 0-4.562-3.625 13.2 13.2 0 0 0-5.563-1.234q-2.175.001-4.453.875-2.285.86-4.125 2.719-1.845 1.844-3 4.703-1.158 2.846-1.156 6.765c0 2.844.578 5.43 1.734 7.75 1.156 2.313 2.828 4.149 5.016 5.5q3.293 2.016 7.86 2.016 2.53.001 4.562-.719 2.028-.732 3.546-1.922 1.512-1.199 2.532-2.5.797-.656 1.593-.656.715.002 1.266.578.546.58.547 1.313-.002.86-.719 1.515c-1.449 1.743-3.336 3.25-5.656 4.532q-3.47 1.906-7.594 1.906m-119.981 62.277q0 5.502-2.39 9.89-2.392 4.379-6.517 6.876-4.125 2.484-9.406 2.484c-3.43 0-6.531-.828-9.312-2.484q-4.16-2.498-6.578-6.875c-1.618-2.926-2.422-6.223-2.422-9.891 0-3.707.804-7.008 2.422-9.906q2.418-4.343 6.578-6.875 4.17-2.546 9.312-2.547 5.28.001 9.406 2.547 4.125 2.532 6.516 6.875 2.39 4.346 2.39 9.906Zm-4.344 0q0-4.405-1.813-7.844-1.816-3.434-4.968-5.422-3.142-1.999-7.188-2-3.907.001-7.094 2-3.19 1.988-5.03 5.422-1.846 3.438-1.845 7.844 0 4.425 1.844 7.828 1.842 3.393 5.031 5.39 3.187 1.986 7.094 1.985 4.046.001 7.188-1.984 3.152-1.999 4.968-5.391 1.813-3.405 1.813-7.828m48.054 0q0 5.502-2.39 9.89-2.392 4.379-6.516 6.876-4.126 2.484-9.407 2.484c-3.43 0-6.53-.828-9.312-2.484q-4.16-2.498-6.578-6.875-2.424-4.389-2.422-9.891-.002-5.56 2.422-9.906 2.418-4.343 6.578-6.875 4.17-2.546 9.312-2.547 5.281.001 9.407 2.547 4.125 2.532 6.515 6.875 2.39 4.346 2.39 9.906Zm-4.344 0q0-4.405-1.812-7.844-1.817-3.434-4.97-5.422-3.141-1.999-7.187-2-3.906.001-7.093 2-3.19 1.988-5.032 5.422-1.844 3.438-1.843 7.844-.001 4.425 1.843 7.828 1.843 3.393 5.032 5.39 3.186 1.986 7.093 1.985 4.045.001 7.188-1.984 3.152-1.999 4.969-5.391 1.811-3.405 1.812-7.828m30.241-18.734q4.484.002 7.672 2.359c2.125 1.562 3.57 3.887 4.344 6.969l-1.016.297.438-1.313q.938-2.168 3.14-4.078a18.2 18.2 0 0 1 5.032-3.078q2.824-1.156 5.719-1.156 4.56 0 7.343 1.953 2.797 1.956 4.063 5.25 1.265 3.28 1.265 7.406v20.484q-.001.877-.625 1.532c-.406.43-.921.64-1.546.64s-1.149-.21-1.563-.64a2.17 2.17 0 0 1-.61-1.532v-20.265q0-2.966-.937-5.422-.94-2.467-2.969-3.906-2.034-1.454-5.421-1.454-2.97 0-5.688 1.454c-1.812.96-3.289 2.261-4.422 3.906a9.37 9.37 0 0 0-1.687 5.422v20.265c0 .586-.211 1.094-.625 1.532-.407.43-.922.64-1.547.64-.637 0-1.156-.21-1.563-.64a2.17 2.17 0 0 1-.609-1.532v-20.484q-.001-2.965-.875-5.344-.86-2.391-2.828-3.797c-1.305-.945-3.063-1.422-5.281-1.422-1.98 0-3.852.477-5.61 1.422q-2.642 1.406-4.265 3.797c-1.086 1.586-1.625 3.367-1.625 5.344v20.484q0 .877-.657 1.532c-.437.43-.945.64-1.515.64-.68 0-1.211-.21-1.594-.64a2.23 2.23 0 0 1-.578-1.532V306.79q0-.872.61-1.515c.413-.438.937-.656 1.562-.656s1.14.218 1.547.656c.414.43.625.933.625 1.515v6.735l-1.954 2.672q.218-2.17 1.407-4.344a14.8 14.8 0 0 1 3.156-3.906 16 16 0 0 1 4.437-2.782 13.5 13.5 0 0 1 5.25-1.046Zm0 0"/></svg>